<svg width="32" height="32" viewBox="0 0 32 32" fill="none" xmlns="http://www.w3.org/2000/svg">
<path d="M12.2134 14.4934C12.0801 14.4801 11.9201 14.4801 11.7734 14.4934C8.60008 14.3867 6.08008 11.7867 6.08008 8.58675C6.08008 5.32008 8.72008 2.66675 12.0001 2.66675C15.2667 2.66675 17.9201 5.32008 17.9201 8.58675C17.9067 11.7867 15.3867 14.3867 12.2134 14.4934Z" stroke="#8C8C8C" stroke-width="2" stroke-linecap="round" stroke-linejoin="round"/>
<path d="M21.8784 5.33325C24.4651 5.33325 26.5451 7.42659 26.5451 9.99992C26.5451 12.5199 24.5451 14.5733 22.0517 14.6666C21.9451 14.6533 21.8251 14.6533 21.7051 14.6666" stroke="#8C8C8C" stroke-width="2" stroke-linecap="round" stroke-linejoin="round"/>
<path d="M5.54695 19.4133C2.32029 21.5733 2.32029 25.0933 5.54695 27.2399C9.21362 29.6933 15.227 29.6933 18.8936 27.2399C22.1203 25.0799 22.1203 21.5599 18.8936 19.4133C15.2403 16.9733 9.22695 16.9733 5.54695 19.4133Z" stroke="#8C8C8C" stroke-width="2" stroke-linecap="round" stroke-linejoin="round"/>
<path d="M24.4531 26.6667C25.4131 26.4667 26.3198 26.0801 27.0665 25.5067C29.1465 23.9467 29.1465 21.3734 27.0665 19.8134C26.3331 19.2534 25.4398 18.8801 24.4931 18.6667" stroke="#8C8C8C" stroke-width="2" stroke-linecap="round" stroke-linejoin="round"/>
</svg>
