<svg width="4" height="49" viewBox="0 0 4 49" fill="none" xmlns="http://www.w3.org/2000/svg">
<path d="M2.9005 27.6397L2.90471 27.6229L2.90893 27.6018C2.91314 27.5681 2.91735 27.5344 2.92156 27.5007V27.4923V27.4797L2.92577 27.467C2.9342 27.4249 2.93841 27.3786 2.94683 27.3323L2.95104 27.3028L2.95525 27.2733C2.95947 27.2607 2.95947 27.2438 2.96368 27.2312L2.98053 27.0795L2.99317 26.9742C3.0058 26.8731 3.01844 26.7805 3.02686 26.6878V26.6752C3.03529 26.5867 3.04792 26.5025 3.05214 26.4182C3.06056 26.3466 3.06477 26.2792 3.0732 26.2161V26.2118L3.08162 26.1487C3.08583 26.1023 3.09004 26.056 3.09425 26.0097V25.9928V25.976C3.10268 25.917 3.10268 25.8538 3.10689 25.7949V25.7864V25.7696C3.11531 25.6811 3.11953 25.5885 3.12795 25.4832V25.4747C3.13638 25.3821 3.14059 25.2894 3.1448 25.1967V25.1715V25.1336V25.0956C3.14901 25.0198 3.15322 24.9398 3.15322 24.864C3.15744 24.7587 3.16165 24.6618 3.16165 24.5607V24.5481V24.5017C3.16165 24.4301 3.16586 24.3585 3.16586 24.2869V24.2069V24.1943C3.16586 24.1311 3.16586 24.0721 3.16586 24.0089C3.16586 23.9458 3.16586 23.8784 3.16586 23.8152V23.811V23.7478C3.09846 19.1819 1.27042 14.9024 -1.98133 11.6928C-5.23729 8.47903 -9.5505 6.70996 -14.1291 6.70996C-15.1863 6.70996 -16.2309 6.80263 -17.2544 6.99217C-14.8872 8.42427 -12.8359 10.3408 -11.2311 12.6448C-8.89762 15.9892 -7.66347 19.919 -7.66347 24.0089C-7.66347 28.0989 -8.89762 32.0287 -11.2311 35.3731C-13.5099 38.6375 -16.669 41.1226 -20.3714 42.5547C-22.6544 43.4392 -25.0679 43.8899 -27.5446 43.8899C-31.1586 43.8899 -34.6294 42.9296 -37.6621 41.1352L-37.6579 41.1394L-37.6453 41.1521L-37.6326 41.1647C-37.62 41.1815 -37.6031 41.1942 -37.5905 41.2068L-37.5442 41.2532C-37.5063 41.2911 -37.4684 41.329 -37.4262 41.3669L-37.4178 41.3753L-37.4094 41.3837C-37.3462 41.4469 -37.2704 41.5185 -37.1946 41.5859L-37.1819 41.5943L-37.1735 41.6028C-37.123 41.6491 -37.0766 41.6954 -37.0261 41.7418L-37.0219 41.746L-37.0177 41.7502C-36.9292 41.8302 -36.845 41.9102 -36.7523 41.9861L-36.7481 41.9903L-36.7439 41.9945C-36.6849 42.045 -36.6259 42.0998 -36.567 42.1503L-36.5543 42.1587L-36.5164 42.1924H-36.5122L-36.3395 42.3399L-36.3058 42.3694L-36.2974 42.3778C-36.2511 42.4157 -36.2047 42.4536 -36.1584 42.4915L-36.1415 42.5041L-36.1247 42.521C-36.0826 42.5547 -36.0404 42.5926 -35.9899 42.6305L-35.9731 42.6431L-35.9562 42.6558C-35.9183 42.6853 -35.8846 42.7147 -35.8509 42.7442L-35.8383 42.7527L-35.8298 42.7611C-35.7035 42.8664 -35.5687 42.9675 -35.4339 43.0686C-35.4044 43.0938 -35.3749 43.1149 -35.3454 43.1359C-35.3118 43.1612 -35.2781 43.1865 -35.2444 43.2118C-35.2233 43.2244 -35.2065 43.237 -35.1896 43.2539L-35.1559 43.2792C-35.1011 43.3213 -35.0506 43.3592 -34.9958 43.4013L-34.9453 43.4392C-34.92 43.4603 -34.8905 43.4771 -34.8653 43.4982L-34.8568 43.5066L-34.8442 43.515C-34.8063 43.5445 -34.7642 43.574 -34.7263 43.6035L-34.6841 43.633C-34.5873 43.7046 -34.4862 43.772 -34.3851 43.8436L-34.3767 43.8478L-34.3682 43.8562C-34.3261 43.8857 -34.2798 43.9152 -34.2335 43.9447L-34.1998 43.9657L-34.0902 44.0373L-33.9723 44.1174C-33.9133 44.1553 -33.8502 44.1974 -33.787 44.2353C-33.7238 44.2774 -33.6606 44.3153 -33.6016 44.3532H-33.45L-33.1762 44.6144C-33.1341 44.6397 -33.092 44.6649 -33.0498 44.6902C-32.9656 44.7407 -32.8814 44.7871 -32.8013 44.8334L-32.7929 44.8376L-32.7845 44.8418C-32.7171 44.8797 -32.6539 44.9177 -32.5865 44.9556C-32.2327 45.1577 -31.8747 45.3473 -31.5124 45.5242C-31.4324 45.5621 -31.3524 45.6042 -31.2766 45.6421C-31.2639 45.6506 -31.2513 45.6548 -31.2429 45.659C-31.167 45.6927 -31.0954 45.7306 -31.0196 45.7643C-30.7922 45.8696 -30.5605 45.9749 -30.3373 46.0718H-30.333L-30.3288 46.076C-30.2741 46.1012 -30.2151 46.1265 -30.1603 46.1476C-30.1435 46.156 -30.1266 46.1602 -30.1056 46.1729C-30.0298 46.2023 -29.954 46.236 -29.8781 46.2655C-29.6928 46.3413 -29.4948 46.4172 -29.2842 46.4972L-29.2758 46.5014L-29.2674 46.5056C-29.2042 46.5309 -29.1368 46.5561 -29.0736 46.5772L-29.0652 46.5814L-29.0568 46.5856C-28.7493 46.6994 -28.446 46.8004 -28.1554 46.8931L-28.147 46.8973L-28.1385 46.9015C-28.0796 46.9226 -28.0206 46.9394 -27.9616 46.9605H-27.9532L-27.9448 46.9647C-27.8563 46.9942 -27.7679 47.0195 -27.6794 47.049L-27.6036 47.07C-27.4983 47.0995 -27.3888 47.129 -27.2835 47.1585C-27.2245 47.1753 -27.1697 47.188 -27.1192 47.2048L-27.1066 47.209C-26.4453 47.3859 -25.7713 47.5376 -25.11 47.6555L-25.1016 47.6597H-25.0932C-25.0131 47.6723 -24.9247 47.6892 -24.8194 47.706H-24.811H-24.8068C-24.7015 47.7229 -24.6088 47.7397 -24.5288 47.7482H-24.5161L-24.5035 47.7524C-24.4108 47.7692 -24.3181 47.7819 -24.2213 47.7945H-24.2128C-23.1051 47.9461 -21.9762 48.0262 -20.8558 48.0262C-19.7312 48.0262 -18.6023 47.9461 -17.4945 47.7945L-17.4693 47.7903C-17.3808 47.7776 -17.2923 47.765 -17.2039 47.7524L-17.1913 47.7482H-17.1828L2.87523 27.6903C2.9005 27.6608 2.9005 27.6524 2.9005 27.6397Z" fill="#404040"/>
</svg>
