<svg width="58" height="48" viewBox="0 0 58 48" fill="none" xmlns="http://www.w3.org/2000/svg">
<path d="M26.4397 10.4318L31.4735 19.152C32.0428 19.1404 32.612 19.1365 33.1889 19.1365C34.6604 19.1365 36.1163 19.1714 37.5452 19.2333L26.4397 0L14.2383 21.1346C16.3564 20.6505 18.6061 20.2478 20.9566 19.9303L26.4397 10.4318ZM17.4019 18.8616L26.4397 3.21007L34.7146 17.545C34.2035 17.5373 33.6962 17.5334 33.1851 17.5334C32.9217 17.5334 32.6584 17.5334 32.3913 17.5373L27.8259 9.6302L26.4358 7.22168L25.0457 9.6302L19.9537 18.4511C19.094 18.575 18.2422 18.7106 17.4019 18.8616Z" fill="#404040"/>
<path d="M18.9543 48C12.662 45.2352 8.81299 41.5334 8.81299 37.4676C8.81299 36.1123 9.23894 34.7996 10.0405 33.5489H45.8082L39.2912 22.2652C41.7695 22.06 44.3367 21.9516 46.966 21.9516C50.5091 21.9516 53.936 22.1491 57.1886 22.5169C57.0028 22.455 56.8092 22.3969 56.6156 22.3388C56.8053 22.3969 56.9989 22.455 57.1886 22.5169C57.4055 22.5402 57.6223 22.5673 57.843 22.5944C57.27 22.4472 56.6853 22.3117 56.0928 22.1762C50.7801 20.9913 44.6659 20.3137 38.1606 20.3059C38.1218 20.3059 38.0831 20.3059 38.0444 20.3059C36.5652 20.3059 35.1015 20.3408 33.6688 20.4105C33.1886 20.4337 32.7162 20.4608 32.2438 20.4879C27.7094 20.7706 23.45 21.3863 19.6165 22.2652C19.2835 22.3427 18.9582 22.4201 18.6329 22.4976C16.36 23.0552 14.2496 23.7096 12.3328 24.4453C5.26604 27.1559 0.867194 30.9777 0.867194 35.2101C0.859449 40.6389 8.11212 45.394 18.9543 48ZM33.6455 22.9197L36.7704 28.3291H16.1199C20.4955 25.8896 26.5749 23.9884 33.6455 22.9197Z" fill="#404040"/>
</svg>
