<svg width="70" height="48" viewBox="0 0 70 48" fill="none" xmlns="http://www.w3.org/2000/svg">
<path d="M20.447 47.9999L20.4426 47.9911L18.6352 44.8556L4.28134 20.0002H0.662109L16.8234 47.9911L16.819 47.9999H16.8278H20.4382H20.447Z" fill="#404040"/>
<path d="M34.9236 47.9999L34.9192 47.9911L33.1118 44.8556L31.2999 41.7245L29.4925 38.589L27.6807 35.4535L25.8733 32.318L18.7579 20.0002H15.1387L24.0615 35.4535L25.8733 38.589L27.6807 41.7245L29.4925 44.8556L31.2999 47.9911L31.2955 47.9999H31.3043H34.9148H34.9236Z" fill="#404040"/>
<path d="M40.35 44.8556L38.5382 41.7245L36.7308 38.589L34.919 35.4535L33.1116 32.318L31.2997 29.1869L29.4923 26.0514L25.9962 20.0002H22.377L27.6805 29.1825L31.2997 35.4535L33.1116 38.589L34.919 41.7245L36.7308 44.8556L38.5382 47.9911L38.5338 47.9999H38.5426H42.1575H42.1619L42.1575 47.9911L40.35 44.8556Z" fill="#404040"/>
<path d="M48.152 0H44.5327L31.3223 22.8852L33.1297 26.0207L48.152 0Z" fill="#404040"/>
<path d="M24.0661 47.9999H27.6765H27.6853L27.6809 47.9911L25.8735 44.8556L24.0617 41.7245L22.2542 38.589L11.5196 20.0002H7.90039L20.4424 41.7201L22.2542 44.8556L24.0617 47.9911L24.0572 47.9999H24.0661Z" fill="#404040"/>
<path d="M36.7488 32.2873L55.3903 0H51.7711L34.9414 29.1518L34.959 29.187L36.7488 32.2873Z" fill="#404040"/>
<path d="M40.368 38.5583L62.6287 0H59.0095L38.5605 35.4228L38.5781 35.4536L40.368 38.5583Z" fill="#404040"/>
<path d="M69.8671 0H66.2479L42.1797 41.6894L42.1973 41.7246L43.9871 44.8249L69.8671 0Z" fill="#404040"/>
</svg>
