<svg width="32" height="33" viewBox="0 0 32 33" fill="none" xmlns="http://www.w3.org/2000/svg">
<path d="M32 16.0264C32 7.18974 24.8366 0.0263672 16 0.0263672C7.16337 0.0263672 0 7.18974 0 16.0264C0 24.0128 5.85189 30.6335 13.5037 31.8364V20.6482H9.44262V16.0264H13.5037V12.499C13.5037 8.49217 15.8915 6.27623 19.5455 6.27623C21.3002 6.27623 23.1272 6.59279 23.1272 6.59279V10.5272H21.1102C19.1204 10.5272 18.5054 11.7573 18.5054 13.0235V16.0264H22.9463L22.2408 20.6482H18.5144V31.8274C26.1481 30.6335 32 24.0128 32 16.0264Z" fill="#F2F2F2"/>
<path d="M22.2318 20.6483L22.9373 16.0265H18.4963V13.0237C18.4963 11.7574 19.1204 10.5274 21.1012 10.5274H23.1182V6.59293C23.1182 6.59293 21.2911 6.27637 19.5365 6.27637C15.8824 6.27637 13.4946 8.49231 13.4946 12.4991V16.0265H9.43359V20.6483H13.4946V31.8275C14.3087 31.9541 15.1408 32.0265 15.991 32.0265C16.8412 32.0265 17.6733 31.9632 18.4873 31.8275V20.6483H22.2318Z" fill="black"/>
</svg>
