<svg width="40" height="40" viewBox="0 0 40 40" fill="none" xmlns="http://www.w3.org/2000/svg">
<path d="M17.4836 3.71685L9.16692 6.8335C7.25025 7.55017 5.68359 9.81682 5.68359 11.8668V24.2501C5.68359 26.2168 6.98361 28.8001 8.56695 29.9835L15.7336 35.3335C18.0836 37.1002 21.9502 37.1002 24.3002 35.3335L31.4669 29.9835C33.0503 28.8001 34.3502 26.2168 34.3502 24.2501V11.8668C34.3502 9.81682 32.7836 7.55017 30.8669 6.8335L22.5503 3.71685C21.1336 3.20018 18.8669 3.20018 17.4836 3.71685Z" stroke="#008EC4" stroke-width="2.5" stroke-linecap="round" stroke-linejoin="round"/>
<path d="M19.9982 18.1997C19.9315 18.1997 19.8482 18.1997 19.7815 18.1997C18.2148 18.1497 16.9648 16.8497 16.9648 15.2664C16.9648 13.6497 18.2815 12.333 19.8982 12.333C21.5149 12.333 22.8315 13.6497 22.8315 15.2664C22.8149 16.8664 21.5649 18.1497 19.9982 18.1997Z" stroke="#008EC4" stroke-width="2.5" stroke-linecap="round" stroke-linejoin="round"/>
<path d="M16.6805 22.8664C15.0805 23.933 15.0805 25.683 16.6805 26.7497C18.4971 27.9663 21.4805 27.9663 23.2971 26.7497C24.8971 25.683 24.8971 23.933 23.2971 22.8664C21.4971 21.6497 18.5138 21.6497 16.6805 22.8664Z" stroke="#008EC4" stroke-width="2.5" stroke-linecap="round" stroke-linejoin="round"/>
</svg>
