<svg width="40" height="40" viewBox="0 0 40 40" fill="none" xmlns="http://www.w3.org/2000/svg">
<path d="M15.0007 36.6666H25.0007C33.334 36.6666 36.6673 33.3333 36.6673 24.9999V14.9999C36.6673 6.66659 33.334 3.33325 25.0007 3.33325H15.0007C6.66732 3.33325 3.33398 6.66659 3.33398 14.9999V24.9999C3.33398 33.3333 6.66732 36.6666 15.0007 36.6666Z" stroke="#008EC4" stroke-width="2.5" stroke-linecap="round" stroke-linejoin="round"/>
<path d="M22.7846 12.5168C21.9513 12.2668 21.0346 12.1001 20.0013 12.1001C15.4013 12.1001 11.668 15.8334 11.668 20.4334C11.668 25.0334 15.4013 28.7668 20.0013 28.7668C24.6013 28.7668 28.3346 25.0334 28.3346 20.4334C28.3346 18.7168 27.818 17.1334 26.9346 15.8001" stroke="#008EC4" stroke-width="2.5" stroke-linecap="round" stroke-linejoin="round"/>
<path d="M23.9698 12.75L21.2031 9.56665" stroke="#008EC4" stroke-width="2.5" stroke-linecap="round" stroke-linejoin="round"/>
<path d="M23.9677 12.7498L20.7344 15.1164" stroke="#008EC4" stroke-width="2.5" stroke-linecap="round" stroke-linejoin="round"/>
</svg>
