<svg width="16" height="15" viewBox="0 0 16 15" fill="none" xmlns="http://www.w3.org/2000/svg">
<path d="M7.55163 0.934615C7.73504 0.562992 8.26496 0.562993 8.44837 0.934616L10.2348 4.55433C10.3076 4.70191 10.4484 4.80419 10.6113 4.82786L14.6059 5.4083C15.016 5.4679 15.1797 5.97188 14.883 6.26115L11.9925 9.07871C11.8746 9.19358 11.8208 9.35908 11.8487 9.52127L12.531 13.4997C12.6011 13.9082 12.1724 14.2197 11.8055 14.0268L8.23267 12.1484C8.08701 12.0719 7.91299 12.0719 7.76733 12.1484L4.19445 14.0268C3.82764 14.2197 3.39892 13.9082 3.46898 13.4997L4.15134 9.52127C4.17916 9.35908 4.12538 9.19358 4.00754 9.07871L1.11702 6.26115C0.820263 5.97188 0.984019 5.4679 1.39413 5.4083L5.38873 4.82785C5.55158 4.80419 5.69236 4.70191 5.76519 4.55433L7.55163 0.934615Z" fill="#FFDA18"/>
</svg>
