<svg width="32" height="33" viewBox="0 0 32 33" fill="none" xmlns="http://www.w3.org/2000/svg">
<path d="M16 32.0264C24.8366 32.0264 32 24.8629 32 16.0264C32 7.18981 24.8366 0.0263672 16 0.0263672C7.16344 0.0263672 0 7.18981 0 16.0264C0 24.8629 7.16344 32.0264 16 32.0264Z" fill="#F2F2F2"/>
<path d="M24.3115 14.1812C24.1487 14.1992 23.9859 14.2083 23.8231 14.2083C22.0232 14.2083 20.3409 13.3038 19.346 11.7934V20.024C19.346 23.3886 16.6235 26.1111 13.2589 26.1111C9.89432 26.1111 7.17188 23.3886 7.17188 20.024C7.17188 16.6594 9.89432 13.937 13.2589 13.937C13.3856 13.937 13.5122 13.946 13.6388 13.955V16.9579C13.5122 16.9398 13.3946 16.9217 13.2589 16.9217C11.5404 16.9217 10.1566 18.3146 10.1566 20.024C10.1566 21.7425 11.5495 23.1263 13.2589 23.1263C14.9774 23.1263 16.4879 21.7787 16.4879 20.0602L16.515 6.07715H19.3822C19.6535 8.64583 21.7247 10.6628 24.3025 10.8437L24.3115 14.1812Z" fill="black"/>
</svg>
