<svg width="32" height="33" viewBox="0 0 32 33" fill="none" xmlns="http://www.w3.org/2000/svg">
<path d="M16 32.0264C24.8366 32.0264 32 24.8629 32 16.0264C32 7.18981 24.8366 0.0263672 16 0.0263672C7.16345 0.0263672 0 7.18981 0 16.0264C0 24.8629 7.16345 32.0264 16 32.0264Z" fill="#F2F2F2"/>
<path d="M24.8467 10.5451C24.2949 10.7983 23.6799 10.9521 23.083 11.0516C23.3633 11.0064 23.7794 10.4908 23.9512 10.2828C24.2045 9.96622 24.4216 9.60443 24.5391 9.21551C24.5572 9.18838 24.5663 9.14315 24.5391 9.12507C24.503 9.10698 24.4758 9.11602 24.4487 9.13411C23.7794 9.4959 23.092 9.74915 22.3594 9.93909C22.2961 9.95718 22.2508 9.93909 22.2147 9.90291C22.1514 9.83055 22.0971 9.76724 22.0338 9.71297C21.7263 9.45067 21.3916 9.24265 21.0208 9.08889C20.5324 8.8899 19.9987 8.8085 19.4651 8.83564C18.9495 8.87182 18.443 9.01653 17.9908 9.25169C17.5295 9.48685 17.1225 9.8215 16.7969 10.2195C16.4623 10.6355 16.209 11.1239 16.0824 11.6395C15.9558 12.1369 15.9738 12.6344 16.0462 13.1409C16.0552 13.2223 16.0462 13.2404 15.9738 13.2223C13.0976 12.7972 10.7189 11.7661 8.78334 9.55921C8.70194 9.45971 8.65672 9.45972 8.58436 9.56825C7.73416 10.8345 8.15022 12.8786 9.20844 13.8735C9.35316 14.0092 9.49787 14.1449 9.65163 14.2624C9.59736 14.2715 8.89188 14.1991 8.2678 13.8735C8.18639 13.8192 8.14117 13.8464 8.13213 13.9459C8.12308 14.0815 8.13213 14.2082 8.15926 14.3619C8.32206 15.6463 9.20844 16.8402 10.4295 17.3014C10.5742 17.3647 10.737 17.419 10.8907 17.4461C10.6104 17.5095 10.33 17.5547 9.53405 17.4914C9.43456 17.4733 9.39838 17.5185 9.43456 17.618C10.0315 19.246 11.3249 19.7344 12.2927 20.0148C12.4193 20.0329 12.555 20.0329 12.6816 20.0691C12.6725 20.0782 12.6635 20.0782 12.6545 20.0962C12.3288 20.5847 11.2164 20.9464 10.7008 21.1273C9.76017 21.4529 8.72907 21.6067 7.73416 21.5072C7.57136 21.4801 7.54422 21.4891 7.499 21.5072C7.45378 21.5343 7.48996 21.5705 7.54422 21.6157C7.74321 21.7514 7.95123 21.869 8.15926 21.9775C8.79239 22.3122 9.45265 22.5835 10.14 22.7735C13.7036 23.7593 17.7195 23.0358 20.3876 20.3766C22.486 18.2873 23.2277 15.4111 23.2277 12.5259C23.2277 12.4173 23.3633 12.354 23.4357 12.2907C23.9784 11.8837 24.4216 11.3862 24.8286 10.8436C24.919 10.7169 24.919 10.6084 24.919 10.5632C24.919 10.5541 24.919 10.5451 24.919 10.5451C24.91 10.4999 24.91 10.5179 24.8467 10.5451Z" fill="black"/>
</svg>
