<svg width="32" height="33" viewBox="0 0 32 33" fill="none" xmlns="http://www.w3.org/2000/svg">
<path d="M16 32.0264C24.8366 32.0264 32 24.8629 32 16.0264C32 7.18981 24.8366 0.0263672 16 0.0263672C7.16344 0.0263672 0 7.18981 0 16.0264C0 24.8629 7.16344 32.0264 16 32.0264Z" fill="#F2F2F2"/>
<path d="M24.5651 13.738C24.5651 11.6125 22.8467 9.89404 20.7212 9.89404H10.8987C8.77317 9.89404 7.05469 11.6125 7.05469 13.738V18.3146C7.05469 20.4401 8.77317 22.1586 10.8987 22.1586H20.7212C22.8467 22.1586 24.5651 20.4401 24.5651 18.3146V13.738ZM18.7856 16.37L14.3809 18.5498C14.209 18.6402 13.6211 18.5136 13.6211 18.3237V13.8466C13.6211 13.6476 14.209 13.5209 14.3899 13.6204L18.6047 15.9178C18.7856 16.0173 18.9665 16.2705 18.7856 16.37Z" fill="black"/>
</svg>
