<svg width="49" height="48" viewBox="0 0 49 48" fill="none" xmlns="http://www.w3.org/2000/svg">
<path d="M28.3576 6.38818C29.169 7.52765 29.825 8.78365 30.2955 10.1303C30.8825 10.208 31.4652 10.3159 32.0306 10.4497C32.1256 10.4713 32.2205 10.4972 32.3155 10.5187C32.337 10.5231 32.363 10.5317 32.3845 10.536C32.5054 10.5662 32.6262 10.6007 32.7471 10.6353C32.7471 10.6353 32.7514 10.6353 32.7514 10.6396C32.8679 10.6698 32.9845 10.7043 33.0967 10.7432C33.196 10.7734 33.2952 10.8036 33.3945 10.8381C33.4981 10.8727 33.5974 10.9072 33.701 10.9417C33.7959 10.9719 33.8909 11.0065 33.9858 11.0453C34.0808 11.0798 34.1714 11.1144 34.2664 11.1532C34.8145 11.3647 35.3497 11.6064 35.8676 11.874C35.9928 11.9388 36.1137 11.9992 36.2345 12.0682C36.4417 12.1805 36.6446 12.297 36.8474 12.4178C36.9337 12.4696 37.0201 12.5214 37.1021 12.5732C37.1409 12.5948 37.1841 12.6207 37.2229 12.6466C37.3136 12.7027 37.4042 12.7631 37.4905 12.8236C37.5769 12.8797 37.6632 12.9358 37.7452 12.9962C38.7379 13.6738 39.6529 14.4594 40.4816 15.3269C40.5809 15.4262 40.6715 15.5255 40.7622 15.6291C40.8399 15.7111 40.9133 15.7974 40.9866 15.8794C41.1075 16.0175 41.224 16.1556 41.3406 16.2981C41.4139 16.3801 41.4787 16.4664 41.5477 16.5527C41.6384 16.6693 41.729 16.7858 41.8153 16.9023C41.8973 17.0146 41.9793 17.1268 42.057 17.2347C42.139 17.3469 42.2167 17.4591 42.2944 17.5757C42.4498 17.8044 42.5966 18.0332 42.739 18.2706C42.8124 18.3871 42.8814 18.5079 42.9505 18.6288C43.0195 18.7496 43.0886 18.8705 43.1533 18.9913C43.2958 19.2546 43.4339 19.5222 43.559 19.7898C43.6108 19.8977 43.6626 20.0056 43.7101 20.1135C43.7576 20.2215 43.8051 20.3294 43.8525 20.4373C43.8957 20.5322 43.9346 20.6272 43.9734 20.7264C44.0079 20.8171 44.0468 20.9034 44.0813 20.994C44.1676 21.2185 44.254 21.4472 44.3273 21.676C44.3748 21.8098 44.418 21.9436 44.4568 22.0774C44.4568 22.0817 44.4611 22.086 44.4611 22.0947C44.5 22.2241 44.5388 22.3536 44.5734 22.4831C44.6813 22.8543 44.7719 23.2298 44.8539 23.6096C44.8755 23.7046 44.8927 23.8039 44.9143 23.8988C44.923 23.9549 44.9359 24.011 44.9445 24.0628C44.9575 24.1362 44.9704 24.2096 44.9834 24.2873C45.0006 24.3952 45.0179 24.4988 45.0352 24.6067C45.0525 24.7146 45.0697 24.8225 45.0827 24.9304C45.087 24.9779 45.0956 25.0253 45.0999 25.0728C45.1085 25.1505 45.1172 25.2325 45.1258 25.3102C45.1344 25.3879 45.1431 25.4613 45.1474 25.539C45.1603 25.6555 45.169 25.772 45.1776 25.8886C45.1862 26.0267 45.1949 26.1648 45.2035 26.3029C45.2121 26.4497 45.2165 26.5964 45.2208 26.7432C45.2251 26.8899 45.2251 27.0367 45.2251 27.1877C45.2251 36.666 37.5121 44.379 28.0338 44.379C27.8871 44.379 27.736 44.379 27.5936 44.3746C27.4468 44.3746 27.3001 44.366 27.1533 44.3574C27.0109 44.3531 26.8641 44.3444 26.7217 44.3315H26.7045C26.5707 44.3228 26.4369 44.3099 26.3031 44.297C26.1865 44.284 26.0743 44.2711 25.9578 44.2581C25.8844 44.2495 25.8153 44.2408 25.742 44.2322C25.6384 44.2193 25.5391 44.2063 25.4398 44.189C25.4312 44.189 25.4226 44.189 25.4139 44.1847C25.3103 44.1718 25.2111 44.1545 25.1118 44.1373C25.0255 44.1243 24.9392 44.107 24.8572 44.0898C24.732 44.0682 24.6068 44.0423 24.4859 44.0164C23.8169 43.874 23.1566 43.6927 22.5135 43.4726C22.3883 43.4294 22.2631 43.3862 22.138 43.3388C22.0171 43.2956 21.8963 43.2481 21.7711 43.2006C21.6071 43.1359 21.4431 43.0668 21.279 42.9978C21.1755 42.9546 21.0719 42.9115 20.9726 42.864C20.8604 42.8165 20.7525 42.7604 20.6403 42.7086C20.5021 42.6395 20.3597 42.5748 20.2216 42.5014C20.1094 42.441 19.9928 42.3849 19.8806 42.3202C19.7511 42.2468 19.6216 42.1777 19.4922 42.1043C19.3713 42.0353 19.2548 41.9662 19.1339 41.8928C19.1339 41.8928 19.1296 41.8929 19.1253 41.8885C18.9052 41.7591 18.6937 41.6209 18.4822 41.4785C18.4649 41.4699 18.4477 41.4569 18.4347 41.444C18.3225 41.3663 18.2103 41.2886 18.098 41.2109C17.9858 41.1332 17.8736 41.0512 17.7657 40.9692C17.6535 40.8872 17.5456 40.8052 17.4377 40.7189C17.347 40.6498 17.2607 40.5807 17.1744 40.5074C17.0363 40.3951 16.8982 40.2786 16.76 40.1621C16.6694 40.0844 16.5788 40.0024 16.4924 39.9247V39.9204C16.3889 39.8297 16.2896 39.7348 16.1903 39.6398C16.091 39.5449 15.9918 39.4499 15.8925 39.3506C15.7026 39.1607 15.517 38.9665 15.3357 38.768C15.2408 38.6601 15.1415 38.5522 15.0508 38.4442C14.8696 38.2371 14.6969 38.0299 14.5286 37.8141C14.425 37.6846 14.3257 37.5508 14.2265 37.417C14.166 37.3393 14.1099 37.2616 14.0538 37.1796C14.0365 37.1537 14.015 37.1278 13.9977 37.1019C13.9286 37.0027 13.8596 36.9034 13.7905 36.8041C13.7215 36.7048 13.661 36.6099 13.5963 36.5106C13.5057 36.3725 13.415 36.2301 13.3287 36.0876C13.1906 35.8589 13.0568 35.6258 12.9273 35.3884C12.677 34.9352 12.4525 34.4648 12.2453 33.9813C12.1979 33.8734 12.1504 33.7612 12.1072 33.649C12.1072 33.6447 12.1029 33.6404 12.1029 33.6317C12.0684 33.5454 12.0338 33.4634 12.0036 33.3814C11.9734 33.3037 11.9432 33.226 11.913 33.1483C11.8828 33.0663 11.8526 32.9843 11.8267 32.9023C11.7835 32.7858 11.7447 32.6692 11.7058 32.5527C11.667 32.4362 11.6281 32.3153 11.5936 32.1945C11.5893 32.1858 11.585 32.1729 11.585 32.1599C11.5504 32.0477 11.5159 31.9269 11.4814 31.8103C11.4468 31.6852 11.4123 31.56 11.3778 31.4348C11.2828 31.055 11.1965 30.6709 11.1275 30.2867C11.1059 30.1572 11.0843 30.0277 11.0627 29.8983C11.0411 29.7688 11.0239 29.6393 11.0066 29.5055C9.65996 29.0394 8.39964 28.3833 7.25586 27.5762C7.45009 38.8888 16.6823 48.0002 28.0425 48.0002C39.5234 48.0002 48.8334 38.6946 48.8334 27.2093C48.8377 15.7931 39.6961 6.54788 28.3576 6.38818ZM10.9332 25.5433C10.9462 25.4181 10.9591 25.2886 10.9721 25.1634C10.985 25.0383 11.0023 24.9088 11.0196 24.7836C11.0368 24.6585 11.0541 24.5333 11.0756 24.4081C11.0929 24.283 11.1188 24.1578 11.1404 24.0369C11.2354 23.5406 11.3476 23.0485 11.4814 22.5694C11.5116 22.4529 11.5504 22.3321 11.585 22.2112C11.6109 22.1206 11.6411 22.0256 11.6713 21.935C11.6799 21.8961 11.6929 21.853 11.7101 21.8184C11.7447 21.7148 11.7792 21.6113 11.818 21.5077C11.8483 21.417 11.8785 21.3264 11.9173 21.2357C11.9389 21.1796 11.9605 21.1235 11.9821 21.0674C12.0597 20.8646 12.1374 20.6703 12.2194 20.4718C12.3187 20.243 12.418 20.0143 12.5302 19.7898C12.582 19.6819 12.6338 19.574 12.6856 19.4704C12.7158 19.4014 12.7546 19.3366 12.7892 19.2676C12.828 19.1856 12.8712 19.1079 12.9143 19.0302C12.9273 19.0043 12.9446 18.9741 12.9618 18.9482C13.0179 18.8403 13.0784 18.7367 13.1388 18.6288C13.1949 18.5338 13.251 18.4389 13.3028 18.3439C13.3546 18.2619 13.4021 18.1799 13.4539 18.1022C13.5013 18.0288 13.5488 17.9555 13.5963 17.8778C13.7948 17.5713 14.002 17.2692 14.2178 16.98C14.2912 16.8808 14.3646 16.7858 14.4379 16.6865C14.4941 16.6131 14.5502 16.5398 14.6106 16.4664C14.7832 16.2506 14.9602 16.0348 15.1458 15.8276C15.2192 15.7413 15.2969 15.655 15.3745 15.573C15.5386 15.3917 15.7069 15.219 15.8795 15.0464C15.9486 14.9773 16.0177 14.9083 16.091 14.8392C16.1989 14.7313 16.3112 14.6234 16.4234 14.5241C16.5054 14.4464 16.5874 14.3731 16.6737 14.2997C16.8248 14.1659 16.9802 14.0364 17.1312 13.9069C17.2089 13.8422 17.2909 13.7774 17.3686 13.7127C17.7139 13.4365 18.0721 13.1732 18.439 12.9272C18.5426 12.8538 18.6505 12.7847 18.7584 12.7157C18.8447 12.6596 18.9267 12.6078 19.0131 12.556C19.0778 12.5171 19.1426 12.474 19.2073 12.4394C19.3023 12.379 19.3972 12.3229 19.4965 12.2711C19.6173 12.1977 19.7382 12.133 19.859 12.0682C19.9799 11.9992 20.1051 11.9344 20.2259 11.874C20.3468 11.8093 20.4719 11.7488 20.5971 11.6884C20.6057 11.6841 20.6101 11.6841 20.6187 11.6798C20.8388 11.5719 21.0632 11.4726 21.2877 11.3733C21.456 11.3 21.6243 11.2309 21.797 11.1662C21.9092 11.1187 22.0214 11.0755 22.138 11.0367C22.2372 10.9978 22.3408 10.9633 22.4401 10.9288C22.4919 10.9115 22.5437 10.8942 22.5955 10.8727C22.7077 10.8381 22.8199 10.7993 22.9321 10.7648C23.0659 10.7216 23.1997 10.6828 23.3379 10.6439C23.4717 10.6051 23.6098 10.5662 23.7479 10.5317C23.8688 10.5015 23.9896 10.4713 24.1104 10.4411C24.2011 10.4195 24.296 10.3979 24.3867 10.3806C24.4255 10.372 24.4687 10.3634 24.5075 10.3547C24.5766 10.3418 24.6457 10.3288 24.719 10.3116C24.8399 10.29 24.965 10.2641 25.0859 10.2425C25.1765 10.2296 25.2629 10.2123 25.3492 10.1993C25.4441 10.1821 25.5348 10.1691 25.6297 10.1562C25.8714 10.1217 26.1131 10.0914 26.3592 10.0699C25.7549 8.83976 24.9305 7.73051 23.9464 6.78959C15.7285 8.43404 9.25857 14.9169 7.64432 23.1435C8.58956 24.1189 9.69881 24.939 10.9332 25.5433Z" fill="#404040"/>
<path d="M30.8971 12.3701C29.9735 12.1931 29.0239 12.0982 28.0485 12.0982C27.7463 12.0982 27.4442 12.1068 27.1507 12.1241C27.414 13.0909 27.5564 14.1095 27.5564 15.154C27.5564 21.5247 22.3727 26.7083 16.0021 26.7083C14.9662 26.7083 13.9605 26.5702 13.0067 26.3113C12.9937 26.5961 12.9851 26.8767 12.9851 27.1659C12.9851 28.1543 13.08 29.1211 13.2656 30.0577C14.1548 30.2217 15.0698 30.3037 16.0107 30.3037C24.3798 30.3037 31.1647 23.5187 31.1647 15.1497C31.1518 14.2045 31.0612 13.2722 30.8971 12.3701ZM15.9978 0C7.62874 0 0.84375 6.78499 0.84375 15.154C0.84375 19.2889 2.50115 23.0353 5.18148 25.7674C5.28075 24.1143 5.55267 22.4958 5.99292 20.9333C5.00452 19.2328 4.44341 17.256 4.44341 15.154C4.44341 8.78337 9.62712 3.59967 15.9978 3.59967C18.0911 3.59967 20.0593 4.15645 21.7512 5.13622C23.3137 4.69166 24.9279 4.41542 26.581 4.31184C23.8532 1.64445 20.1154 0 15.9978 0Z" fill="#404040"/>
</svg>
