<svg width="55" height="48" viewBox="0 0 55 48" fill="none" xmlns="http://www.w3.org/2000/svg">
<path d="M23.1287 4.1337C23.1914 4.1337 23.2593 4.13892 23.3221 4.14415C23.6931 4.15982 24.0641 4.18073 24.4508 4.21208C26.1911 4.33751 27.8738 4.59358 29.4625 4.96461V0.924985C27.8372 0.512138 26.097 0.235165 24.2888 0.104518C23.6251 0.0522585 22.9197 0.0209038 22.1933 0.00522603C21.9999 1.19728e-07 21.8065 0 21.6079 0C21.6027 0 21.5975 0 21.587 0C18.1902 0 14.6993 0.449428 11.2032 1.33261C7.23146 2.33076 3.42699 3.8724 0.166016 5.79554V45.826C3.3486 44.0858 6.94403 42.6905 10.6806 41.7498C13.6332 41.0077 16.6067 40.5531 19.5176 40.4015H19.5437H19.5542C19.5803 40.4015 19.6064 40.3963 19.6273 40.3963C20.129 40.3702 20.6255 40.3545 21.1376 40.3493V36.2521C17.3802 36.2887 13.5234 36.8009 9.67195 37.7677C8.28708 38.1178 6.94403 38.515 5.68458 38.9435L4.26313 39.4295V37.9244V8.8945V8.21513L4.87456 7.92248C7.16351 6.83026 9.63014 5.94709 12.2013 5.29907C14.7463 4.65629 17.2861 4.26957 19.7527 4.13892C19.805 4.1337 19.8468 4.1337 19.8782 4.1337C20.4478 4.10757 21.0226 4.09189 21.587 4.09189C21.7961 4.09189 21.9999 4.09711 22.2037 4.09711H22.2298C22.5329 4.10757 22.8308 4.11279 23.1287 4.1337Z" fill="#404040"/>
<path d="M33.2368 8.36152C32.2961 8.36152 31.3607 8.33016 30.4618 8.26223C29.3696 8.18384 28.2826 8.05319 27.2374 7.87551C26.5999 7.76577 25.9728 7.64035 25.3613 7.49925V47.0751C27.7652 47.6865 30.4096 48.0001 33.2368 48.0001C36.6284 48.0001 40.1245 47.5506 43.6259 46.6727C47.5924 45.6693 51.3968 44.1329 54.663 42.2097V2.88477C51.4804 4.62499 47.885 6.02031 44.1537 6.96098C40.4799 7.89119 36.8061 8.36152 33.2368 8.36152ZM49.1445 9.04089L50.5659 8.5601V10.0599V39.0951V39.7745L49.9545 40.0671C47.6708 41.1541 45.2041 42.0373 42.6225 42.6853C39.4504 43.4849 36.2939 43.8925 33.242 43.8925C32.2961 43.8925 31.3554 43.8507 30.4461 43.7723L29.4637 43.6887V42.701V42.5912V39.9051L29.4689 39.9103V12.7304V11.5807L30.6134 11.6538C31.4443 11.7061 32.3066 11.7322 33.242 11.7322C37.151 11.7322 41.1593 11.2201 45.1571 10.2115C46.4949 9.88226 47.838 9.48509 49.1445 9.04089Z" fill="#404040"/>
</svg>
